<?xml version="1.0" encoding="UTF-8" standalone="no"?>
<!DOCTYPE svg PUBLIC "-//W3C//DTD SVG 1.1//EN" "http://www.w3.org/Graphics/SVG/1.1/DTD/svg11.dtd">
<svg width="100%" height="100%" viewBox="0 0 2226 1627" version="1.1" xmlns="http://www.w3.org/2000/svg" xmlns:xlink="http://www.w3.org/1999/xlink" xml:space="preserve" xmlns:serif="http://www.serif.com/" style="fill-rule:evenodd;clip-rule:evenodd;stroke-linejoin:round;stroke-miterlimit:2;">
    <g id="Artboard3" transform="matrix(1.01139,0,0,1.17836,2670.07,494.909)">
        <rect x="-2640" y="-420" width="2200" height="1380" style="fill:none;"/>
        <clipPath id="_clip1">
            <rect x="-2640" y="-420" width="2200" height="1380"/>
        </clipPath>
        <g clip-path="url(#_clip1)">
            <g id="Icey.svg" transform="matrix(4.11974,0,0,3.536,-1542.5,552.653)">
                <g transform="matrix(1,0,0,1,-540,-540)">
                    <g>
                        <g id="New-Logo" serif:id="New Logo">
                            <rect x="0" y="0" width="1080" height="1080" style="fill:none;"/>
                            <g transform="matrix(0.744472,0,0,0.744472,96.2018,201.658)">
                                <path d="M330,313.432C330,306.014 323.986,300 316.568,300L253.432,300C246.014,300 240,306.014 240,313.432L240,506.568C240,513.986 246.014,520 253.432,520L316.568,520C323.986,520 330,513.986 330,506.568L330,313.432Z" style="fill:white;"/>
                            </g>
                            <g transform="matrix(0.744472,0,0,0.744472,83.1735,201.658)">
                                <path d="M550,313.432C550,306.014 543.986,300 536.568,300L378.432,300C371.014,300 365,306.014 365,313.432L365,506.568C365,513.986 371.014,520 378.432,520L536.568,520C543.986,520 550,513.986 550,506.568L550,463.432C550,456.014 543.986,450 536.568,450L468.432,450C461.014,450 455,443.986 455,436.568L455,383.432C455,376.014 461.014,370 468.432,370L536.568,370C543.986,370 550,363.986 550,356.568L550,313.432Z" style="fill:white;"/>
                            </g>
                            <g transform="matrix(0.744472,0,0,0.744472,73.8676,201.658)">
                                <path d="M765,313.432C765,306.014 758.986,300 751.568,300L593.432,300C586.014,300 580,306.014 580,313.432L580,506.568C580,513.986 586.014,520 593.432,520L751.568,520C758.986,520 765,513.986 765,506.568L765,463.432C765,456.014 758.986,450 751.568,450L675,450C672.238,450 670,447.762 670,445.001L670,444.999C670,442.238 672.238,440 675,440L726.568,440C733.986,440 740,433.986 740,426.568L740,393.432C740,386.014 733.986,380 726.568,380L675,380C672.238,380 670,377.762 670,375.001L670,374.999C670,372.238 672.238,370 675,370L751.568,370C758.986,370 765,363.986 765,356.568L765,313.432Z" style="fill:white;"/>
                            </g>
                            <g transform="matrix(0.744472,0,0,0.744472,68.098,197.936)">
                                <path d="M891.32,525C893.622,525 895.83,525.914 897.458,527.542C899.086,529.17 900,531.378 900,533.68L900,533.684C900,535.986 899.086,538.194 897.458,539.822C895.83,541.45 893.622,542.364 891.32,542.364L291.182,542.364C287.62,542.364 284.203,543.779 281.684,546.299C279.165,548.818 277.75,552.234 277.75,555.797L277.75,600.512C277.75,604.074 279.165,607.491 281.684,610.01C284.203,612.529 287.62,613.944 291.182,613.944L976.568,613.944C980.13,613.944 983.547,612.529 986.066,610.01C988.585,607.491 990,604.074 990,600.512L990,318.432C990,311.014 983.986,305 976.568,305L913.432,305C906.014,305 900,311.014 900,318.432L900,425.001C900,430.523 895.523,435 890.001,435L889.999,435C884.477,435 880,430.523 880,425.001L880,318.432C880,311.014 873.986,305 866.568,305L803.432,305C796.014,305 790,311.014 790,318.432L790,511.568C790,515.13 791.415,518.547 793.934,521.066C796.453,523.585 799.87,525 803.432,525L891.32,525Z" style="fill:white;"/>
                            </g>
                        </g>
                    </g>
                </g>
            </g>
        </g>
    </g>
</svg>
